<?xml version="1.0" encoding="utf-8"?>
<!-- Generator: Adobe Illustrator 16.0.0, SVG Export Plug-In . SVG Version: 6.00 Build 0)  -->
<!DOCTYPE svg PUBLIC "-//W3C//DTD SVG 1.1//EN" "http://www.w3.org/Graphics/SVG/1.1/DTD/svg11.dtd">
<svg version="1.1" id="Layer_1" xmlns="http://www.w3.org/2000/svg" xmlns:xlink="http://www.w3.org/1999/xlink" x="0px" y="0px"
	 width="768.479px" height="609.782px" viewBox="0 0 768.479 609.782" enable-background="new 0 0 768.479 609.782"
	 xml:space="preserve">
<g>
	<path d="M760.846,88.977c0.04-4.44-5.84-9.83-10.34-12.16c-11.78-6.2-20.91-11.9-29.171-16.41c-2.829-6.04-18.739-8.34-29.18-7.3
		c12.09-16.51-18.09-25.55-39.52-39.51c-21.65-13.73-41.271-2.05-55.32,13.98c-9.84,11.47,0.38,44.34,0,43.77
		c7.63,27.77-12.75,39.61-26.75,44.38c-19.42,6.53-60.74,1.68-91.18-8.51c-6.69-2.04-11.08-9.24-15.811-15.81
		c-1.14-1.64,0.431,5.05-3.04,3.65c-3.26-1.93-0.64-6.87-3.04-9.73c-2.319,3.07-3.83,6.65-7.29,8.51l0.61-4.86
		c-0.22,0.67-0.29,1.17-0.61,1.82c2.28-6.42-1.779-12.52,0-18.84c-4.239,3.26-1.88,8.15-3.649,12.16
		c-2.88-8.72-10.771-13.62-15.8-20.67c-1.061,3.39,0.22,6.99,0.6,10.33c-4.3-6.24-11.31-6.6-17.63-9.72
		c1.96,2.28,0.439,5.49,2.43,7.9c-6.439-6.89-14.899-9.59-23.1-12.77c1.39,2.36,0.66,5.85,2.689,7.58
		c-35.84-15.55-56.9-40.37-88.4-14.26c-16.09,14-24.62,32.03-32.83,50.45c-1.34,2.89-35.24,31.5-36.48,34.05l20.07-9.12
		c-21.93,22.39-27.53,26.93-52.28,46.81c-13.55,11.06-28.02,18.98-42.56,29.18c-29.59,20.55-47.94,47.99-77.2,69.3
		c-19.57,14.58-40.07,24.02-63.23,30.39c14.3,3.06,28.7,1.11,42.56-1.82c-15.27,16.25-36.54,25.14-57.75,31
		c28.89-2.26,61.36,6.399,87.66-10.24c-5.27,3.561-8.13,7.811-14.11,10.24c14.61,8,29.75-2.43,42.56-9.72
		c-3.08,2.449,1.69,7.27-10.34,6.68c17.28,3.229,40.32-8.67,54.71-20.061c-1.2,4.87-6.23,6.75-9.11,10.341
		c12.88-0.341,24.16-6.57,35.26-12.16c0,4.25-5.96,5.95-4.87,7.29c5.07,8.859,21.35,1.27,27.97-5.471l0.6,3.65
		c-3.64,6.56-3.5,2.62-6.68,9.73c-6.41,13.56-12.61,27.979-22.5,39.51c2.5,1.229,6.64-1.311,6.69-0.61
		c1.15,9.95-10.15,16.38-9.73,26.141c-0.1,0.869,2.45-0.301,4.26-0.61c3.12-0.23,1.2,2.1,0.61,3.04c-0.76,2.24-2.57,3.78-3.65,6.08
		c-1.13,3,4.73-3.53,3.04,1.83c-4.95,14.83-14.7,26.21-19.45,40.729c4.16-0.229,6.76-3.13,9.23-6.1
		c-5.62,7.09-14.11,28.37-16.53,35.88c-8.7,32.689-23.37,80.67-43.77,108.21c-2.22,2.84-4.6,8.04-4.86,12.77
		c8.62-1.43,17.77-4.42,22.56-11.939c-4.8,9.28-4.77,19.63-6.15,29.57c16.59-4.16,18.7-15.051,25.53-30.37
		c0,0.479,17.08-35.021,10.95,9.09c-1.76,13.09,22.18-36.01,31-43.16c-0.5,1.66-2.69,19.36-3.04,20.67
		c14.34-3.35,40.56-49.86,44.38-56.54c9.49,6.811,21.95-21.649,25.53-28.57c3.1,4.75,10.32,1.681,12.77,4.261
		c3.2,3.5-5.1,10.949-1.22,17.02c0.57,0.91,4.61,0.24,4.87,1.21c3.24,10.271-4.53,21.46,0,31.62c3.33,7.05,9.2,10.72,14.58,17.021
		c-13.05,0.97-18.22,15.569-20.06,26.14c-2.13,9.38,6.44,17.82,15.81,20.67c-0.48-8.85-0.88-19.82,7.29-24.32
		c5.82-3,10.9-7.859,18.24-7.3c7.04,0.97,30.77,3.75,36.48,6.69c13.23,6.05,4.96,23.43-3.04,32.22c9.89,0.25,18.3-4.61,24.92-10.33
		c8.25-6.86,6.4-21.93,1.22-29.18c-15.05-22.67-42.47-10.63-56.54-19.46c-11.49-7.24-10.33-18.16-15.2-28.57
		c-1.19-3.16,0.48-7.1,1.22-10.94c4.35,1.341,7.65-0.85,9.73-4.859c1.55-3.4,4.68-5.271,6.68-7.91c1.67-2.07,0.62-6.21,1.83-6.68
		c4.6-2.761,9.22-5.69,10.94-9.12c2.64-5.91,8.26-9.19,10.94-13.98c23.75-40.72,54.51-74.16,82.68-111.859
		c11.9-16.341-1.1-5.771,11.55-21.28c5-5.87,8.471-11.24,12.761-17.63c1.359,2.24,1.029,4.39,0.609,6.689
		c5.04-12.39,13.63-23.11,14.591-37.08c3.319,1.99-0.61,10.03,2.43,7.29c4.57-4.6,7.04-13.1,7.28-21.06
		c0.659,2.06,3.93,3.58,1.84,6.47c4.25-3.25,1.62-8.21,3.04-12.15c4.29,3.57,7.67,7.82,12.77,9.72c-1.57-7.97-5.109-15.21-7.3-23.1
		c2.17-0.1,2.71,4.19,5.47,2.43c-1.76-3.1-0.39-6.39-0.069-9.46c-0.061,3.69,3.84,1.05,4.329,0.95c7.83-12.22-6.659-25.6-8.51-38.3
		c1.59,0.21,3.11,0.42,4.86,0.61c-2.11-2.35-1.38-5.36-2.43-7.9c4.26,2.76,9.93-0.78,13.38,3.04c-2-4.22-1.021-9.33-2.44-13.98
		c3.22,3.39,8.2,2.29,11.55,4.86c0.221-9.22-13.09-13.46-9.72-21.28c1.15-2.33,7.94,3.61,10.33,0.61c1.75-1.79-6.04,0.23-4.86-4.86
		c1.971-6.04,7.11-2.61,13.37-2.44c31.521,1.05,31.38,7.21,64.44-3.03c24.109-7.35,31.77-6.43,50.46-30.4
		c8.74-11.69,13.31-24.49,17.02-31c3.66-6.77,31.98-2.13,38.9-1.83c20.14,0.65,15.26-6.73,31.01,4.87
		c8.4,6.53,15.96,26.5,1.82,32.22C752.105,136.517,761.165,107.127,760.846,88.977z M676.346,57.367l-13.98-13.98l18.84,12.76
		L676.346,57.367z"/>
</g>
</svg>
